<svg xmlns="http://www.w3.org/2000/svg" viewBox="0 0 240 240" role="img" aria-labelledby="title description">
  <title id="title">EchoAI mascot</title>
  <description id="description">Echo, a cheerful coral AI creative assistant wearing colorful headphones, a navy hoodie, a golden crown spark, and bright sneakers.</description>
  <defs>
    <linearGradient id="echoBody" x1="58" y1="35" x2="174" y2="165" gradientUnits="userSpaceOnUse">
      <stop stop-color="#ffad9f"/>
      <stop offset=".42" stop-color="#ff667d"/>
      <stop offset="1" stop-color="#e64287"/>
    </linearGradient>
    <linearGradient id="echoBodyShade" x1="74" y1="54" x2="165" y2="152" gradientUnits="userSpaceOnUse">
      <stop stop-color="#ff7f91" stop-opacity="0"/>
      <stop offset="1" stop-color="#c82f79" stop-opacity=".5"/>
    </linearGradient>
    <linearGradient id="echoHeadphones" x1="36" y1="68" x2="201" y2="129" gradientUnits="userSpaceOnUse">
      <stop stop-color="#19d6e7"/>
      <stop offset=".5" stop-color="#3385f1"/>
      <stop offset="1" stop-color="#8c4eea"/>
    </linearGradient>
    <linearGradient id="echoHoodie" x1="76" y1="144" x2="158" y2="215" gradientUnits="userSpaceOnUse">
      <stop stop-color="#263b72"/>
      <stop offset="1" stop-color="#101a3b"/>
    </linearGradient>
    <linearGradient id="echoSole" x1="76" y1="211" x2="168" y2="229" gradientUnits="userSpaceOnUse">
      <stop stop-color="#4ed7e0"/>
      <stop offset=".5" stop-color="#4b7df0"/>
      <stop offset="1" stop-color="#a94bdd"/>
    </linearGradient>
    <linearGradient id="echoWord" x1="99" y1="169" x2="150" y2="169" gradientUnits="userSpaceOnUse">
      <stop stop-color="#fff"/>
      <stop offset=".72" stop-color="#fff"/>
      <stop offset=".73" stop-color="#65d9ef"/>
      <stop offset="1" stop-color="#e763cf"/>
    </linearGradient>
    <radialGradient id="echoShine" cx="0" cy="0" r="1" gradientTransform="translate(93 66) rotate(48) scale(54 68)" gradientUnits="userSpaceOnUse">
      <stop stop-color="#fff" stop-opacity=".72"/>
      <stop offset="1" stop-color="#fff" stop-opacity="0"/>
    </radialGradient>
    <filter id="echoShadow" x="-20%" y="-20%" width="140%" height="150%">
      <feDropShadow dx="0" dy="7" stdDeviation="6" flood-color="#17223b" flood-opacity=".22"/>
    </filter>
  </defs>

  <ellipse cx="122" cy="225" rx="73" ry="9" fill="#24335f" opacity=".15"/>

  <g filter="url(#echoShadow)">
    <path fill="#ffd43b" stroke="#f4ad19" stroke-linejoin="round" stroke-width="2" d="m143 35 4-25 15 17 22-10-8 23 21 12-25 5-1 25-16-19-23 9 10-23-20-13z"/>
    <path fill="#fff4a8" d="m151 29 2-10 6 8 10-4-5 9z" opacity=".8"/>

    <path fill="none" stroke="#243466" stroke-linecap="round" stroke-width="15" d="M50 104C49 54 79 29 120 29s72 25 72 75"/>
    <path fill="none" stroke="url(#echoHeadphones)" stroke-linecap="round" stroke-width="10" d="M50 104C49 54 79 29 120 29s72 25 72 75"/>
    <path fill="none" stroke="#9ff4f2" stroke-linecap="round" stroke-width="2" d="M59 75c10-28 32-39 61-39" opacity=".85"/>

    <path fill="url(#echoBody)" d="M63 52c16-20 43-28 70-22 31 7 53 32 57 63 4 31-12 61-40 76-29 15-65 10-87-13-25-25-29-67 0-104z"/>
    <path fill="url(#echoBodyShade)" d="M81 42c38-19 87 3 100 44 12 38-10 78-46 90 23-23 30-58 17-87-13-28-40-46-71-47z"/>
    <path fill="url(#echoShine)" d="M73 59c17-18 45-24 70-15 11 4 21 10 29 19-25-11-55-8-76 8-17 13-28 32-32 52-6-24-3-48 9-64z"/>

    <g>
      <rect x="31" y="82" width="35" height="58" rx="17.5" fill="#253666"/>
      <rect x="35" y="87" width="27" height="48" rx="13.5" fill="url(#echoHeadphones)"/>
      <rect x="42" y="95" width="14" height="32" rx="7" fill="#17224a"/>
      <path fill="none" stroke="#60f4ed" stroke-width="3" d="M49 101c-5 4-5 15 0 20"/>
    </g>
    <g>
      <rect x="177" y="82" width="35" height="58" rx="17.5" fill="#253666"/>
      <rect x="181" y="87" width="27" height="48" rx="13.5" fill="url(#echoHeadphones)"/>
      <rect x="187" y="95" width="14" height="32" rx="7" fill="#17224a"/>
      <path fill="none" stroke="#c99aff" stroke-width="3" d="M194 101c5 4 5 15 0 20"/>
    </g>

    <ellipse cx="92" cy="99" rx="19" ry="25" fill="#fff"/>
    <ellipse cx="151" cy="99" rx="19" ry="25" fill="#fff"/>
    <ellipse cx="96" cy="103" rx="10" ry="14" fill="#17223b"/>
    <ellipse cx="147" cy="103" rx="10" ry="14" fill="#17223b"/>
    <ellipse cx="100" cy="97" rx="3.8" ry="5" fill="#fff"/>
    <ellipse cx="151" cy="97" rx="3.8" ry="5" fill="#fff"/>
    <ellipse cx="70" cy="126" rx="12" ry="7" fill="#ffb3b6" opacity=".8"/>
    <ellipse cx="173" cy="126" rx="12" ry="7" fill="#ffb3b6" opacity=".8"/>
    <path fill="#17223b" d="M93 127c7 16 21 23 34 22 14-1 25-10 29-23-8 6-18 9-31 9-12 0-23-3-32-8z"/>
    <path fill="#ff8c9e" d="M108 142c11 5 24 2 32-5-5 9-12 12-20 12-5 0-9-2-12-7z"/>

    <path fill="url(#echoHoodie)" d="M70 149c14-13 31-18 51-18 22 0 40 6 53 20l9 52c-16 11-37 17-61 17-25 0-47-6-63-18z"/>
    <path fill="#344b85" d="M84 149c8-7 21-11 37-11 17 0 30 4 39 12-10-2-20-3-38-3-17 0-27 1-38 2z"/>
    <path fill="none" stroke="#8ba1d4" stroke-linecap="round" stroke-width="3" d="m102 145-4 17m42-17 4 17"/>
    <circle cx="98" cy="163" r="3" fill="#5be1e4"/>
    <circle cx="144" cy="163" r="3" fill="#b26bec"/>
    <text x="121" y="181" fill="url(#echoWord)" font-family="Arial, sans-serif" font-size="18" font-weight="700" text-anchor="middle">EchoAI</text>
    <path fill="#0c1533" d="M82 191c10 5 24 8 40 8s30-3 40-8l2 12c-11 6-25 9-42 9-18 0-32-3-43-9z" opacity=".55"/>

    <path fill="url(#echoBody)" d="M65 152c-14 0-27 10-30 24-2 12 4 22 15 25 12 4 25-3 29-15l7-21c2-7-6-13-21-13z"/>
    <path fill="url(#echoBody)" d="M177 150c14-1 27 8 31 21 4 12-2 23-13 27-12 5-25-1-30-13l-8-20c-3-7 5-14 20-15z"/>
    <circle cx="47" cy="181" r="10" fill="#ff9c9b" opacity=".65"/>
    <circle cx="196" cy="177" r="10" fill="#ff9c9b" opacity=".65"/>

    <path fill="#273b73" d="M85 205c-13 0-23 6-25 15-1 7 6 12 18 12h21c8 0 12-6 9-13-4-9-12-14-23-14z"/>
    <path fill="#273b73" d="M157 205c13 0 23 6 25 15 1 7-6 12-18 12h-21c-8 0-12-6-9-13 4-9 12-14 23-14z"/>
    <path fill="#fff" d="M65 216c9 3 22 3 40 0l4 8c-8 6-36 7-48 1z"/>
    <path fill="#fff" d="M178 216c-9 3-22 3-40 0l-4 8c8 6 36 7 48 1z"/>
    <path fill="url(#echoSole)" d="M60 224c13 5 35 5 49 0v5c-12 7-39 7-49 1z"/>
    <path fill="url(#echoSole)" d="M183 224c-13 5-35 5-49 0v5c12 7 39 7 49 1z"/>
  </g>
</svg>
